<svg xmlns="http://www.w3.org/2000/svg" xmlns:xlink="http://www.w3.org/1999/xlink" viewBox="0 0 500 500"><defs fill="#0a0a23"><clipPath id="freepik--clip-path--inject-15" fill="#0a0a23"><path d="M321.14,244.22s-3.46,23-4,34.63,2.92,58.33,2.92,71.63,10,55,10,55l-2.74,2.19-.18,2.91,8,2.55c4,1.28,4.74,1.1,4.74,1.1s-.91-8.57-.91-27.71,3.1-54.13,3.28-69.63,5.83-30.25,5.83-30.25l2.37-2S360,334.26,360,338.09s-8.93,64-9.48,65.43-1.28,2.19-1.28,4.2v5.65l13.49-5.29a17.43,17.43,0,0,0-.54-4.56,9.32,9.32,0,0,1-.55-3.46c0-.55,19.5-51.76,19.5-57.6A88.67,88.67,0,0,0,380,330.07l-2.19-52.13s2.55-5.47,1.46-10.21-7.11-18.77-8.2-19.68S332.26,254.06,321.14,244.22Z" style="fill:#f5f6f7;stroke:#0a0a23;stroke-linecap:round;stroke-linejoin:round"/></clipPath><clipPath id="freepik--clip-path-2--inject-15" fill="#0a0a23"><path d="M266.83,141.05s-7.66-9.48-7.66-11.3,57.6-25.7,58.51-25.7,16.41,10.75,16.59,11.67,1.09,5.83,1.09,6.56-2.73,2.18-2.73,2.18-3.47,3.29-4.38,3.29h-.91a14.8,14.8,0,0,1-3.64,1.09,3.11,3.11,0,0,1-2-1.09s-5.1,1.27-4.74.36,6.2-4.56,6.2-4.56-6.74-4.19-8-6.92a37.58,37.58,0,0,1-2-5.47L277.58,137Z" style="fill:#f5f6f7;stroke:#0a0a23;stroke-linecap:round;stroke-linejoin:round"/></clipPath><clipPath id="freepik--clip-path-3--inject-15" fill="#0a0a23"><path d="M337.55,160.55S331.9,157.82,325,154s-10.39-3.1-13.12-3.1-26.8-12.39-26.8-12.39L274.3,149.44s42.83,31.35,43.56,33.72,2.37,52.13,1.64,56-2,5.47-1.27,6.93,10,9.66,26.25,9.48,27.7-4.74,28.79-6.93,1.1-3.1.37-4.74-1.46-3.64-1.46-3.64L378,200.84l5.84,29.89s2.91,1.64,9.11.55,8.93-2.74,8.93-2.74-9.84-45.2-11.85-50.85-3.28-5.11-9.66-7.47-23.15-7.66-23.15-7.66Z" style="fill:#f5f6f7;stroke:#0a0a23;stroke-linecap:round;stroke-linejoin:round"/></clipPath><clipPath id="freepik--clip-path-4--inject-15" fill="#0a0a23"><path d="M280.33,94H106.45a19.35,19.35,0,0,0-14.3,6.3,19.36,19.36,0,0,0-6.12,15l3.66,80V409.83a17.62,17.62,0,0,0,17.62,17.62H277.44a19.49,19.49,0,0,0,18.63-18.63V194.34l3.67-80A19.43,19.43,0,0,0,280.33,94Z" style="fill:#f5f6f7;stroke:#0a0a23;stroke-miterlimit:10"/></clipPath></defs><g id="freepik--background-simple--inject-15"><path d="M66.14,205.47s-16,68.58,28.65,128.33,122.64,83,185.27,103.45,121.31-3.16,143.32-55.8-22.45-81-32.25-149.75-2-88.56-47.7-140.91-139.55-51.1-203,2.65S66.14,205.47,66.14,205.47Z" style="fill:#f5f6f7"/><path d="M66.14,205.47s-16,68.58,28.65,128.33,122.64,83,185.27,103.45,121.31-3.16,143.32-55.8-22.45-81-32.25-149.75-2-88.56-47.7-140.91-139.55-51.1-203,2.65S66.14,205.47,66.14,205.47Z" style="fill:#f5f6f7;opacity:0.7000000000000001"/></g><g id="freepik--Floor--inject-15"><ellipse cx="239.5" cy="428.5" rx="180.5" ry="18.5" style="fill:#0a0a23"/></g><g id="freepik--Plants--inject-15"><path d="M384,257.87c-.06,0,.65-3.52.72-3.73.82-2.51,3.87-6.89,6.82-6.88a3.49,3.49,0,0,1,3.36,4c-.21,2.08-2.08,3.85-3.76,4.87C389.17,257.3,384,257.87,384,257.87Z" style="fill:#f5f6f7"/><path d="M378.29,234.2c2.78,1,4.16,6.14,4.07,8.78,0,.23-.53,3.78-.58,3.75l0,0c.22.81.45,1.68.69,2.64.41,1.77.87,3.78,1.22,6a63.19,63.19,0,0,1,.78,7.21,45.46,45.46,0,0,1-.27,8.1.44.44,0,0,1,0,.1c.37-.79,1.46-2.95,1.56-3.11,1.45-2.2,5.54-5.62,8.39-4.83a3.5,3.5,0,0,1,2.19,4.72c-.75,1.94-3,3.16-4.91,3.7-2.14.61-6.9-.11-7.28-.17a62.75,62.75,0,0,1-1.76,8.07q-.66,2.33-1.43,4.63c.33-.67.64-1.26.69-1.34,1.45-2.21,5.54-5.62,8.39-4.84a3.5,3.5,0,0,1,2.2,4.72c-.76,1.95-3,3.16-4.92,3.7s-6,0-7.07-.14c-.21.59-.4,1.18-.6,1.77-1,2.82-2,5.64-2.85,8.42-.31,1-.58,2-.86,2.94.3-.59.56-1.09.61-1.16,1.45-2.2,5.54-5.62,8.39-4.83a3.49,3.49,0,0,1,2.19,4.72c-.75,1.94-3,3.16-4.91,3.7s-5.6.06-6.89-.12c-.25,1-.5,2-.7,3-.12.68-.28,1.32-.36,2s-.19,1.36-.28,2c-.14,1.3-.28,2.63-.38,3.89-.08.88-.13,1.72-.19,2.56.3-1,.92-2.89,1-3a13.56,13.56,0,0,1,4.53-5.15,3.8,3.8,0,0,1,.38-.68,3.5,3.5,0,0,1,5.14-.8c2.24,1.93,1.68,7.23.65,9.66-.06.15-.89,1.63-1.43,2.55.4-.49.78-1,1.2-1.48.82-1,1.67-2,2.58-3.05l1.38-1.5c.45-.51,1-1,1.49-1.49,1.19-1.14,2.44-2.25,3.73-3.33-.88-.72-4-3.32-4.85-5.09s-1.52-4.25-.6-6.12a3.5,3.5,0,0,1,5-1.58c2.5,1.57,2.75,6.9,2.1,9.46,0,.15-.71,1.94-1.1,2.91.78-.64,1.55-1.29,2.36-1.92,2.34-1.8,4.76-3.56,7.17-5.32.74-.54,1.46-1.08,2.19-1.63-.31-.25-4-3.27-5-5.25-.88-1.76-1.51-4.25-.59-6.12a3.49,3.49,0,0,1,5-1.57c2.5,1.57,2.76,6.89,2.11,9.45-.05.19-1,2.75-1.3,3.39,1.61-1.19,3.2-2.4,4.72-3.66a59.81,59.81,0,0,0,5.85-5.44c-.15-.12-4.06-3.25-5.07-5.28-.89-1.76-1.52-4.25-.6-6.12a3.49,3.49,0,0,1,5-1.58c2.51,1.57,2.76,6.9,2.11,9.46,0,.16-.78,2.12-1.15,3l.14.09a45.75,45.75,0,0,0,4.8-6.44c.79-1.25,1.47-2.49,2.11-3.71-.79-.51-4.36-2.87-5.48-4.6s-2-4.06-1.26-6a3.5,3.5,0,0,1,4.76-2.11c2.66,1.29,3.49,6.55,3.13,9.17,0,.14-.38,1.56-.66,2.59.28-.55.58-1.12.83-1.65,1-2,1.74-3.92,2.41-5.61.37-1,.68-1.84,1-2.67-.51-.9-2.53-4.56-2.73-6.57s.12-4.52,1.66-5.93a3.5,3.5,0,0,1,5.19.32c1.77,2.37.08,7.43-1.44,9.58-.13.19-2.53,2.86-2.56,2.81l0,0c-.26.8-.55,1.65-.88,2.58-.63,1.71-1.36,3.63-2.29,5.67a62,62,0,0,1-3.32,6.44,45.37,45.37,0,0,1-4.7,6.61.23.23,0,0,1-.07.07c.74-.45,2.84-1.65,3-1.73,2.42-1,7.72-1.62,9.66.6a3.5,3.5,0,0,1-.77,5.15c-1.71,1.2-4.27,1-6.14.37-2.12-.67-5.7-3.9-6-4.16a62.27,62.27,0,0,1-5.92,5.77c-1.22,1-2.48,2.06-3.75,3.07.65-.37,1.23-.7,1.32-.74,2.42-1,7.72-1.63,9.66.6a3.49,3.49,0,0,1-.77,5.14c-1.7,1.21-4.26,1-6.14.38s-5-3.3-5.83-4l-1.47,1.14c-2.37,1.82-4.75,3.62-7,5.46-.8.65-1.57,1.31-2.34,2l1.15-.64c2.42-1,7.72-1.63,9.66.6a3.51,3.51,0,0,1-.77,5.15c-1.7,1.2-4.26,1-6.14.37s-4.71-3-5.68-3.89c-.77.7-1.54,1.41-2.25,2.13-.47.5-1,.95-1.41,1.47l-1.35,1.53c-.83,1-1.68,2-2.46,3-.55.69-1.06,1.36-1.57,2,.79-.65,2.36-1.9,2.51-2,2.23-1.4,7.38-2.78,9.64-.87a3.49,3.49,0,0,1,0,5.2c-1.5,1.45-4.06,1.6-6,1.3-2.14-.34-6-2.86-6.51-3.18-.84,1.11-1.66,2.2-2.41,3.25-2.61,3.61-4.65,6.71-6,8.9-.05.08-.1.15-.14.23l-1.81-.88.28-.43c1.46-2.19,3.59-5.28,6.3-8.86.86-1.14,1.8-2.34,2.77-3.56a37.52,37.52,0,0,1-2.81-3.47c-2.07.81-6.39.85-6.95.85-.09,1.39-.17,2.75-.22,4-.19,4.45-.17,8.17-.13,10.76,0,.11,0,.2,0,.3l-2-1c0-2.58.1-6.07.36-10.19.09-1.42.21-2.94.35-4.49-.55-.14-5.05-1.29-6.75-2.65-1.54-1.23-3.16-3.22-3.1-5.31a3.5,3.5,0,0,1,3.85-3.51c2.93.38,5.39,5.11,5.87,7.7,0,.16.15,1.85.21,2.92.06-.63.11-1.25.18-1.9.13-1.29.3-2.58.47-4l.33-2c.1-.67.28-1.37.42-2.07.36-1.6.8-3.21,1.27-4.82-1.13-.12-5.14-.59-6.85-1.58s-3.61-2.71-3.87-4.78a3.5,3.5,0,0,1,3.27-4.05c2.95-.07,6.1,4.23,7,6.73.05.15.47,2,.69,3,.29-1,.58-1.93.91-2.9.95-2.79,2-5.59,3-8.39.32-.86.62-1.71.93-2.57-.4,0-5.18-.49-7.1-1.6-1.71-1-3.61-2.71-3.87-4.78a3.49,3.49,0,0,1,3.27-4.05c2.95-.07,6.1,4.23,7,6.72.06.19.67,2.87.79,3.55.68-1.88,1.34-3.77,1.92-5.66a62.47,62.47,0,0,0,1.88-7.76c-.19,0-5.18-.48-7.15-1.61-1.71-1-3.61-2.71-3.87-4.78a3.5,3.5,0,0,1,3.27-4.05c2.95-.07,6.1,4.23,7,6.73.06.16.52,2.2.72,3.17h.17a45.13,45.13,0,0,0,.44-8c0-1.48-.14-2.89-.28-4.26-.94,0-5.22,0-7.11-.81s-3.89-2.3-4.37-4.33a3.49,3.49,0,0,1,2.8-4.38c2.93-.39,6.53,3.54,7.67,5.92.06.13.55,1.51.88,2.53-.07-.62-.13-1.26-.21-1.85-.3-2.21-.71-4.22-1.09-6-.22-1-.45-1.92-.66-2.76-.93-.47-4.63-2.41-5.9-4s-2.4-3.83-1.89-5.86A3.49,3.49,0,0,1,378.29,234.2Z" style="fill:#f5f6f7"/><path d="M431.71,279.75c-2.32-.1-6.93-2.47-6.93-2.47s2.48-2.56,2.66-2.71c2.06-1.64,7-3.61,9.48-2a3.5,3.5,0,0,1,.61,5.17C436.21,279.38,433.68,279.83,431.71,279.75Z" style="fill:#f5f6f7"/><g style="opacity:0.5"><path d="M384,257.87c-.06,0,.65-3.52.72-3.73.82-2.51,3.87-6.89,6.82-6.88a3.49,3.49,0,0,1,3.36,4c-.21,2.08-2.08,3.85-3.76,4.87C389.17,257.3,384,257.87,384,257.87Z" style="fill:#f5f6f7"/><path d="M378.29,234.2c2.78,1,4.16,6.14,4.07,8.78,0,.23-.53,3.78-.58,3.75l0,0c.22.81.45,1.68.69,2.64.41,1.77.87,3.78,1.22,6a63.19,63.19,0,0,1,.78,7.21,45.46,45.46,0,0,1-.27,8.1.44.44,0,0,1,0,.1c.37-.79,1.46-2.95,1.56-3.11,1.45-2.2,5.54-5.62,8.39-4.83a3.5,3.5,0,0,1,2.19,4.72c-.75,1.94-3,3.16-4.91,3.7-2.14.61-6.9-.11-7.28-.17a62.75,62.75,0,0,1-1.76,8.07q-.66,2.33-1.43,4.63c.33-.67.64-1.26.69-1.34,1.45-2.21,5.54-5.62,8.39-4.84a3.5,3.5,0,0,1,2.2,4.72c-.76,1.95-3,3.16-4.92,3.7s-6,0-7.07-.14c-.21.59-.4,1.18-.6,1.77-1,2.82-2,5.64-2.85,8.42-.31,1-.58,2-.86,2.94.3-.59.56-1.09.61-1.16,1.45-2.2,5.54-5.62,8.39-4.83a3.49,3.49,0,0,1,2.19,4.72c-.75,1.94-3,3.16-4.91,3.7s-5.6.06-6.89-.12c-.25,1-.5,2-.7,3-.12.68-.28,1.32-.36,2s-.19,1.36-.28,2c-.14,1.3-.28,2.63-.38,3.89-.08.88-.13,1.72-.19,2.56.3-1,.92-2.89,1-3a13.56,13.56,0,0,1,4.53-5.15,3.8,3.8,0,0,1,.38-.68,3.5,3.5,0,0,1,5.14-.8c2.24,1.93,1.68,7.23.65,9.66-.06.15-.89,1.63-1.43,2.55.4-.49.78-1,1.2-1.48.82-1,1.67-2,2.58-3.05l1.38-1.5c.45-.51,1-1,1.49-1.49,1.19-1.14,2.44-2.25,3.73-3.33-.88-.72-4-3.32-4.85-5.09s-1.52-4.25-.6-6.12a3.5,3.5,0,0,1,5-1.58c2.5,1.57,2.75,6.9,2.1,9.46,0,.15-.71,1.94-1.1,2.91.78-.64,1.55-1.29,2.36-1.92,2.34-1.8,4.76-3.56,7.17-5.32.74-.54,1.46-1.08,2.19-1.63-.31-.25-4-3.27-5-5.25-.88-1.76-1.51-4.25-.59-6.12a3.49,3.49,0,0,1,5-1.57c2.5,1.57,2.76,6.89,2.11,9.45-.05.19-1,2.75-1.3,3.39,1.61-1.19,3.2-2.4,4.72-3.66a59.81,59.81,0,0,0,5.85-5.44c-.15-.12-4.06-3.25-5.07-5.28-.89-1.76-1.52-4.25-.6-6.12a3.49,3.49,0,0,1,5-1.58c2.51,1.57,2.76,6.9,2.11,9.46,0,.16-.78,2.12-1.15,3l.14.09a45.75,45.75,0,0,0,4.8-6.44c.79-1.25,1.47-2.49,2.11-3.71-.79-.51-4.36-2.87-5.48-4.6s-2-4.06-1.26-6a3.5,3.5,0,0,1,4.76-2.11c2.66,1.29,3.49,6.55,3.13,9.17,0,.14-.38,1.56-.66,2.59.28-.55.58-1.12.83-1.65,1-2,1.74-3.92,2.41-5.61.37-1,.68-1.84,1-2.67-.51-.9-2.53-4.56-2.73-6.57s.12-4.52,1.66-5.93a3.5,3.5,0,0,1,5.19.32c1.77,2.37.08,7.43-1.44,9.58-.13.19-2.53,2.86-2.56,2.81l0,0c-.26.8-.55,1.65-.88,2.58-.63,1.71-1.36,3.63-2.29,5.67a62,62,0,0,1-3.32,6.44,45.37,45.37,0,0,1-4.7,6.61.23.23,0,0,1-.07.07c.74-.45,2.84-1.65,3-1.73,2.42-1,7.72-1.62,9.66.6a3.5,3.5,0,0,1-.77,5.15c-1.71,1.2-4.27,1-6.14.37-2.12-.67-5.7-3.9-6-4.16a62.27,62.27,0,0,1-5.92,5.77c-1.22,1-2.48,2.06-3.75,3.07.65-.37,1.23-.7,1.32-.74,2.42-1,7.72-1.63,9.66.6a3.49,3.49,0,0,1-.77,5.14c-1.7,1.21-4.26,1-6.14.38s-5-3.3-5.83-4l-1.47,1.14c-2.37,1.82-4.75,3.62-7,5.46-.8.65-1.57,1.31-2.34,2l1.15-.64c2.42-1,7.72-1.63,9.66.6a3.51,3.51,0,0,1-.77,5.15c-1.7,1.2-4.26,1-6.14.37s-4.71-3-5.68-3.89c-.77.7-1.54,1.41-2.25,2.13-.47.5-1,.95-1.41,1.47l-1.35,1.53c-.83,1-1.68,2-2.46,3-.55.69-1.06,1.36-1.57,2,.79-.65,2.36-1.9,2.51-2,2.23-1.4,7.38-2.78,9.64-.87a3.49,3.49,0,0,1,0,5.2c-1.5,1.45-4.06,1.6-6,1.3-2.14-.34-6-2.86-6.51-3.18-.84,1.11-1.66,2.2-2.41,3.25-2.61,3.61-4.65,6.71-6,8.9-.05.08-.1.15-.14.23l-1.81-.88.28-.43c1.46-2.19,3.59-5.28,6.3-8.86.86-1.14,1.8-2.34,2.77-3.56a37.52,37.52,0,0,1-2.81-3.47c-2.07.81-6.39.85-6.95.85-.09,1.39-.17,2.75-.22,4-.19,4.45-.17,8.17-.13,10.76,0,.11,0,.2,0,.3l-2-1c0-2.58.1-6.07.36-10.19.09-1.42.21-2.94.35-4.49-.55-.14-5.05-1.29-6.75-2.65-1.54-1.23-3.16-3.22-3.1-5.31a3.5,3.5,0,0,1,3.85-3.51c2.93.38,5.39,5.11,5.87,7.7,0,.16.15,1.85.21,2.92.06-.63.11-1.25.18-1.9.13-1.29.3-2.58.47-4l.33-2c.1-.67.28-1.37.42-2.07.36-1.6.8-3.21,1.27-4.82-1.13-.12-5.14-.59-6.85-1.58s-3.61-2.71-3.87-4.78a3.5,3.5,0,0,1,3.27-4.05c2.95-.07,6.1,4.23,7,6.73.05.15.47,2,.69,3,.29-1,.58-1.93.91-2.9.95-2.79,2-5.59,3-8.39.32-.86.62-1.71.93-2.57-.4,0-5.18-.49-7.1-1.6-1.71-1-3.61-2.71-3.87-4.78a3.49,3.49,0,0,1,3.27-4.05c2.95-.07,6.1,4.23,7,6.72.06.19.67,2.87.79,3.55.68-1.88,1.34-3.77,1.92-5.66a62.47,62.47,0,0,0,1.88-7.76c-.19,0-5.18-.48-7.15-1.61-1.71-1-3.61-2.71-3.87-4.78a3.5,3.5,0,0,1,3.27-4.05c2.95-.07,6.1,4.23,7,6.73.06.16.52,2.2.72,3.17h.17a45.13,45.13,0,0,0,.44-8c0-1.48-.14-2.89-.28-4.26-.94,0-5.22,0-7.11-.81s-3.89-2.3-4.37-4.33a3.49,3.49,0,0,1,2.8-4.38c2.93-.39,6.53,3.54,7.67,5.92.06.13.55,1.51.88,2.53-.07-.62-.13-1.26-.21-1.85-.3-2.21-.71-4.22-1.09-6-.22-1-.45-1.92-.66-2.76-.93-.47-4.63-2.41-5.9-4s-2.4-3.83-1.89-5.86A3.49,3.49,0,0,1,378.29,234.2Z" style="fill:#f5f6f7"/><path d="M431.71,279.75c-2.32-.1-6.93-2.47-6.93-2.47s2.48-2.56,2.66-2.71c2.06-1.64,7-3.61,9.48-2a3.5,3.5,0,0,1,.61,5.17C436.21,279.38,433.68,279.83,431.71,279.75Z" style="fill:#f5f6f7"/></g><path d="M404.74,337.57s-14-33.78-21.85-32.31,13.45,53.85,13.45,53.85-24.66-46.51-41.47-46.51S361,364,382.33,381.14c0,0-33.62-36.23-53.24-28.39s39.23,44.54,39.23,44.54-34.18-10.77-30.26-2.44,14.57,9.79,14.57,9.79l-38.67,2H448.45l-30.26-2.94s31.38-15.67,23-22-26.9,7.34-26.9,7.34,31.94-35.24,25.78-48.46-33.63,24-33.63,24,22.42-47.48,17.94-55.8S404.74,337.57,404.74,337.57Z" style="fill:#f5f6f7"/><path d="M404.74,337.57s-14-33.78-21.85-32.31,13.45,53.85,13.45,53.85-24.66-46.51-41.47-46.51S361,364,382.33,381.14c0,0-33.62-36.23-53.24-28.39s39.23,44.54,39.23,44.54-34.18-10.77-30.26-2.44,14.57,9.79,14.57,9.79l-38.67,2H448.45l-30.26-2.94s31.38-15.67,23-22-26.9,7.34-26.9,7.34,31.94-35.24,25.78-48.46-33.63,24-33.63,24,22.42-47.48,17.94-55.8S404.74,337.57,404.74,337.57Z" style="fill:#f5f6f7;opacity:0.4"/><path d="M409.23,339.35c-12.33,36.42-12.33,62.2-12.33,62.2s14.57.56,29.7-10.65" style="fill:#f5f6f7;stroke:#0a0a23;stroke-linecap:round;stroke-linejoin:round"/><path d="M403.06,359A218.31,218.31,0,0,0,393,327" style="fill:#f5f6f7;stroke:#0a0a23;stroke-linecap:round;stroke-linejoin:round"/><path d="M366.64,337.67,398,384.18s21.29-17.93,28.58-28" style="fill:#f5f6f7;stroke:#0a0a23;stroke-linecap:round;stroke-linejoin:round"/><path d="M397.46,395.39S364.4,379.7,351,370.73" style="fill:#f5f6f7;stroke:#0a0a23;stroke-linecap:round;stroke-linejoin:round"/></g><g id="freepik--Character--inject-15"><path d="M385.12,233.83l-7.29,20-4.92.73,3.46,13.49s5.29-6.57,6.93-8.94S401,231.09,401,231.09Z" style="fill:#f5f6f7;stroke:#0a0a23;stroke-linecap:round;stroke-linejoin:round"/><path d="M327.89,409.72s-12.21,10.94-13.31,14.77,8.93,1.45,13.86-1.83a64.34,64.34,0,0,0,7.29-5.47l.54,1.46s2.92-.36,3.47-2.18-1.1-6.2-1.1-6.2Z" style="fill:#f5f6f7;stroke:#0a0a23;stroke-linecap:round;stroke-linejoin:round"/><path d="M361.06,406.62s12.43,13.31,13.52,17.14-8.93,1.45-13.85-1.83a65.25,65.25,0,0,1-7.29-5.46l-.55,1.45s-2.92-.36-3.46-2.18,1.09-6.2,1.09-6.2Z" style="fill:#f5f6f7;stroke:#0a0a23;stroke-linecap:round;stroke-linejoin:round"/><path d="M321.14,244.22s-3.46,23-4,34.63,2.92,58.33,2.92,71.63,10,55,10,55l-2.74,2.19-.18,2.91,8,2.55c4,1.28,4.74,1.1,4.74,1.1s-.91-8.57-.91-27.71,3.1-54.13,3.28-69.63,5.83-30.25,5.83-30.25l2.37-2S360,334.26,360,338.09s-8.93,64-9.48,65.43-1.28,2.19-1.28,4.2v5.65l13.49-5.29a17.43,17.43,0,0,0-.54-4.56,9.32,9.32,0,0,1-.55-3.46c0-.55,19.5-51.76,19.5-57.6A88.67,88.67,0,0,0,380,330.07l-2.19-52.13s2.55-5.47,1.46-10.21-7.11-18.77-8.2-19.68S332.26,254.06,321.14,244.22Z" style="fill:#f5f6f7"/><g style="clip-path:url(#freepik--clip-path--inject-15)"><g style="opacity:0.2"><path d="M365.76,336.4c0-5.5,3.47-62.38,3.47-62.38l-18.74,10.66c1.31,6.88,9.48,49.89,9.48,53.41,0,3.83-8.93,64-9.48,65.43s-1.28,2.19-1.28,4.2v5.65l13.49-5.29a17.43,17.43,0,0,0-.54-4.56,9.32,9.32,0,0,1-.55-3.46c0-.44,12.62-33.66,17.55-49.68C363.8,353.73,365.76,341.78,365.76,336.4Z" fill="#0a0a23"/><path d="M342.33,354.67l-1.54-7.76c.07-1.17.15-2.33.22-3.48l-.67,1.22-16.67-84,26.82-4.42c-10.51.25-29.35-12-29.35-12L317,273.33,318.33,330l1.75,21.86c.06,1.26.17,2.71.35,4.29l.57,7.18a6.2,6.2,0,0,0,.74,2.08c2.85,17.28,8.34,40.12,8.34,40.12l-2.74,2.19-.18,2.91,8,2.55c4,1.28,4.74,1.1,4.74,1.1s-.91-8.57-.91-27.71c0-7.18.43-16.61,1-26.39A40.58,40.58,0,0,0,342.33,354.67Z" fill="#0a0a23"/></g></g><path d="M321.14,244.22s-3.46,23-4,34.63,2.92,58.33,2.92,71.63,10,55,10,55l-2.74,2.19-.18,2.91,8,2.55c4,1.28,4.74,1.1,4.74,1.1s-.91-8.57-.91-27.71,3.1-54.13,3.28-69.63,5.83-30.25,5.83-30.25l2.37-2S360,334.26,360,338.09s-8.93,64-9.48,65.43-1.28,2.19-1.28,4.2v5.65l13.49-5.29a17.43,17.43,0,0,0-.54-4.56,9.32,9.32,0,0,1-.55-3.46c0-.55,19.5-51.76,19.5-57.6A88.67,88.67,0,0,0,380,330.07l-2.19-52.13s2.55-5.47,1.46-10.21-7.11-18.77-8.2-19.68S332.26,254.06,321.14,244.22Z" style="fill:#f5f6f7;stroke:#0a0a23;stroke-linecap:round;stroke-linejoin:round"/><line x1="350.49" y1="284.68" x2="368.35" y2="273.93" style="fill:#f5f6f7;stroke:#0a0a23;stroke-linecap:round;stroke-linejoin:round"/><line x1="355.78" y1="283.41" x2="365.07" y2="279.76" style="fill:#f5f6f7;stroke:#0a0a23;stroke-linecap:round;stroke-linejoin:round"/><line x1="347.94" y1="255.7" x2="348.12" y2="274.84" style="fill:#f5f6f7;stroke:#0a0a23;stroke-linecap:round;stroke-linejoin:round"/><polyline points="350.49 256.25 351.4 272.11 349.4 274.29" style="fill:#f5f6f7;stroke:#0a0a23;stroke-linecap:round;stroke-linejoin:round"/><line x1="362.89" y1="254.79" x2="364.34" y2="268.64" style="fill:#f5f6f7;stroke:#0a0a23;stroke-linecap:round;stroke-linejoin:round"/><line x1="365.07" y1="253.33" x2="368.54" y2="260.62" style="fill:#f5f6f7;stroke:#0a0a23;stroke-linecap:round;stroke-linejoin:round"/><line x1="332.99" y1="254.79" x2="326.61" y2="276.48" style="fill:#f5f6f7;stroke:#0a0a23;stroke-linecap:round;stroke-linejoin:round"/><line x1="333.54" y1="256.07" x2="333.54" y2="272.11" style="fill:#f5f6f7;stroke:#0a0a23;stroke-linecap:round;stroke-linejoin:round"/><path d="M266.83,141.05s-7.66-9.48-7.66-11.3,57.6-25.7,58.51-25.7,16.41,10.75,16.59,11.67,1.09,5.83,1.09,6.56-2.73,2.18-2.73,2.18-3.47,3.29-4.38,3.29h-.91a14.8,14.8,0,0,1-3.64,1.09,3.11,3.11,0,0,1-2-1.09s-5.1,1.27-4.74.36,6.2-4.56,6.2-4.56-6.74-4.19-8-6.92a37.58,37.58,0,0,1-2-5.47L277.58,137Z" style="fill:#f5f6f7"/><g style="clip-path:url(#freepik--clip-path-2--inject-15)"><path d="M312.31,106.12c-14.46,5.83-53.14,22.14-53.14,23.63,0,1.82,7.66,11.3,7.66,11.3l10.75-4,35.49-25.84Z" style="opacity:0.2" fill="#0a0a23"/></g><path d="M266.83,141.05s-7.66-9.48-7.66-11.3,57.6-25.7,58.51-25.7,16.41,10.75,16.59,11.67,1.09,5.83,1.09,6.56-2.73,2.18-2.73,2.18-3.47,3.29-4.38,3.29h-.91a14.8,14.8,0,0,1-3.64,1.09,3.11,3.11,0,0,1-2-1.09s-5.1,1.27-4.74.36,6.2-4.56,6.2-4.56-6.74-4.19-8-6.92a37.58,37.58,0,0,1-2-5.47L277.58,137Z" style="fill:#f5f6f7;stroke:#0a0a23;stroke-linecap:round;stroke-linejoin:round"/><path d="M321.69,127.75s3.85-.81,4.22-1.63,1.12-3.22.53-4.72" style="fill:#f5f6f7;stroke:#0a0a23;stroke-linecap:round;stroke-linejoin:round"/><path d="M327.34,127.75s2-1.11,2.24-2.83a30.34,30.34,0,0,0-.52-5.91" style="fill:#f5f6f7;stroke:#0a0a23;stroke-linecap:round;stroke-linejoin:round"/><path d="M332.63,124.46a5.84,5.84,0,0,0,.24-3.66c-.52-2-.9-4.11-.9-4.11" style="fill:#f5f6f7;stroke:#0a0a23;stroke-linecap:round;stroke-linejoin:round"/><path d="M337.55,160.55S331.9,157.82,325,154s-10.39-3.1-13.12-3.1-26.8-12.39-26.8-12.39L274.3,149.44s42.83,31.35,43.56,33.72,2.37,52.13,1.64,56-2,5.47-1.27,6.93,10,9.66,26.25,9.48,27.7-4.74,28.79-6.93,1.1-3.1.37-4.74-1.46-3.64-1.46-3.64L378,200.84l5.84,29.89s2.91,1.64,9.11.55,8.93-2.74,8.93-2.74-9.84-45.2-11.85-50.85-3.28-5.11-9.66-7.47-23.15-7.66-23.15-7.66Z" style="fill:#f5f6f7"/><g style="clip-path:url(#freepik--clip-path-3--inject-15)"><path d="M362.2,252.59c-6.62,0-18.62-.83-23.17-4.14s-10.76-27.31-10.76-27.31l12,16.55-20.5-86a20.93,20.93,0,0,0-7.92-.81c-2.74,0-26.8-12.39-26.8-12.39L274.3,149.44s42.83,31.35,43.56,33.72,2.37,52.13,1.64,56-2,5.47-1.27,6.93,10,9.66,26.25,9.48a77.17,77.17,0,0,0,20.92-3C364.38,252.58,363.31,252.59,362.2,252.59Z" style="opacity:0.2" fill="#0a0a23"/><polygon points="378.25 202.58 381.45 192.64 382.16 197.61 388.9 193.35 383.85 230.73 378.25 202.58" style="opacity:0.2" fill="#0a0a23"/></g><path d="M337.55,160.55S331.9,157.82,325,154s-10.39-3.1-13.12-3.1-26.8-12.39-26.8-12.39L274.3,149.44s42.83,31.35,43.56,33.72,2.37,52.13,1.64,56-2,5.47-1.27,6.93,10,9.66,26.25,9.48,27.7-4.74,28.79-6.93,1.1-3.1.37-4.74-1.46-3.64-1.46-3.64L378,200.84l5.84,29.89s2.91,1.64,9.11.55,8.93-2.74,8.93-2.74-9.84-45.2-11.85-50.85-3.28-5.11-9.66-7.47-23.15-7.66-23.15-7.66Z" style="fill:#f5f6f7;stroke:#0a0a23;stroke-linecap:round;stroke-linejoin:round"/><polyline points="383.82 189.39 378.01 200.84 389.19 189.66" style="fill:#f5f6f7;stroke:#0a0a23;stroke-linecap:round;stroke-linejoin:round"/><line x1="317.86" y1="183.16" x2="312.21" y2="160.92" style="fill:#f5f6f7;stroke:#0a0a23;stroke-linecap:round;stroke-linejoin:round"/><line x1="317.86" y1="182.43" x2="306.2" y2="153.08" style="fill:#f5f6f7;stroke:#0a0a23;stroke-linecap:round;stroke-linejoin:round"/><path d="M318.56,181.92s9.88,43.49,17,52.61" style="fill:#f5f6f7;stroke:#0a0a23;stroke-linecap:round;stroke-linejoin:round"/><path d="M321.75,202.9s5.32,34.22,10.19,41.06" style="fill:#f5f6f7;stroke:#0a0a23;stroke-linecap:round;stroke-linejoin:round"/><path d="M335.73,171.31l6.92,17.13-3.82,51.95,7.47,18.05L354.14,238l-8.21-50.12,12.58-16-1.28-.92s-3.82,2.92-7.47,6.38-6.92,3.83-8.75,1.28-3.46-9.66-3.46-9.66Z" style="fill:#0a0a23;stroke:#0a0a23;stroke-linecap:round;stroke-linejoin:round"/><path d="M344.48,152.17s-6.2.73-8,4-4.93,4.19-5.47,10.39-1.28,9.48-.55,9.48,8.57-5.47,8.57-5.47,2.73,7.84,3.83,8.38,2.91-.54,4.55-1.82,5.47-5.83,7.29-4.92,5.65,10.39,7.11,8,6-13.85,2.37-22.24S344.48,152.17,344.48,152.17Z" style="fill:#f5f6f7;stroke:#0a0a23;stroke-linecap:round;stroke-linejoin:round"/><path d="M340.83,150.89s1.09,17.87,1.28,23.15,1.64,6.56,2.91,5.47,12.4-11.3,13.49-17.31,1.64-9.48,1.64-9.48Z" style="fill:#f5f6f7;stroke:#0a0a23;stroke-linecap:round;stroke-linejoin:round"/><path d="M338.46,134.13s-1.82-5.84-4-4.93-2.92,7.48-1.46,10.39,5.47,3.1,6,1.83S338.46,134.13,338.46,134.13Z" style="fill:#f5f6f7;stroke:#0a0a23;stroke-linecap:round;stroke-linejoin:round"/><path d="M369.45,131.21l9.29-7.66,3.47-.73-1.83,3.29-10.2,7.65S368.9,133.58,369.45,131.21Z" style="fill:#f5f6f7;stroke:#0a0a23;stroke-linecap:round;stroke-linejoin:round"/><polygon points="378.74 123.55 378.36 123.87 380.21 126.23 380.38 126.11 382.21 122.82 378.74 123.55" style="fill:#f5f6f7;stroke:#0a0a23;stroke-linecap:round;stroke-linejoin:round"/><path d="M369.45,132.85s3.64-3.65,4.92-.73.18,6.56-2.55,9.11-4.38,2-4.38.19S369.45,132.85,369.45,132.85Z" style="fill:#f5f6f7;stroke:#0a0a23;stroke-linecap:round;stroke-linejoin:round"/><path d="M344.29,108.43s-6.92,1.27-7.47,4.92,1.28,31.35,2.19,35.72,8.75,13.13,14.94,12.76,10.76-7.65,12.4-11.85,6.56-28.8,6.56-34.45-10.21-12.21-18-12.21S344.29,108.43,344.29,108.43Z" style="fill:#f5f6f7;stroke:#0a0a23;stroke-linecap:round;stroke-linejoin:round"/><path d="M354.12,134.76s2.92,6.93,1.82,8.39-7.11,2.18-7.11-1.1" style="fill:#f5f6f7;stroke:#0a0a23;stroke-linecap:round;stroke-linejoin:round"/><path d="M346.83,146.25s3.83,4.55,11.48.18" style="fill:#f5f6f7;stroke:#0a0a23;stroke-linecap:round;stroke-linejoin:round"/><path d="M352.12,133.85a6.38,6.38,0,1,0-6.38,6.38A6.38,6.38,0,0,0,352.12,133.85Z" style="fill:#f5f6f7;stroke:#0a0a23;stroke-linecap:round;stroke-linejoin:round"/><path d="M368.52,135a6.38,6.38,0,1,0-6.38,6.37A6.38,6.38,0,0,0,368.52,135Z" style="fill:#f5f6f7;stroke:#0a0a23;stroke-linecap:round;stroke-linejoin:round"/><path d="M352.12,133.85s2.18-.73,3.64.37" style="fill:#f5f6f7;stroke:#0a0a23;stroke-linecap:round;stroke-linejoin:round"/><path d="M354.87,103.32c-7.84,0-10.58,5.11-10.58,5.11s-6.92,1.27-7.47,4.92c-.28,1.87.06,10.1.59,18.25.2.14,1.23.76,1.23-.39s-.73-3.1.19-4.19,3.64-1.64,5.46-4.56,1.28-4.74,1.83-5.29,6.38-4.37,5.1-1.64-9.48,7.48-4.74,10,14.76,2.37,18.23-.18,6-8.21,5.47-5.65-2.19,6.74-1.64,8a28,28,0,0,1,.91,5.1s-1.64,5.83-1.1,6.2a1.11,1.11,0,0,0,.72,0c1.87-8.78,3.84-20,3.84-23.53C372.91,109.88,362.7,103.32,354.87,103.32Z" style="fill:#0a0a23;stroke:#0a0a23;stroke-linecap:round;stroke-linejoin:round"/><path d="M380.75,227.81l.36,6.2s1.28,1.82,9.85,1.46,13.3-3.28,13.3-3.28l-1.82-8.2S390.59,228.36,380.75,227.81Z" style="fill:#f5f6f7;stroke:#0a0a23;stroke-linecap:round;stroke-linejoin:round"/><path d="M283.78,133.4l-21.51,8.2s9.3,10.93,9.84,10.75,16-12.21,15.86-13.49S283.78,133.4,283.78,133.4Z" style="fill:#f5f6f7;stroke:#0a0a23;stroke-linecap:round;stroke-linejoin:round"/></g></svg>